<?xml version="1.0" encoding="UTF-8"?>
<svg version="1.1" xmlns="http://www.w3.org/2000/svg" width="512" height="512">
<path d="M0 0 C168.96 0 337.92 0 512 0 C512 168.96 512 337.92 512 512 C343.04 512 174.08 512 0 512 C0 343.04 0 174.08 0 0 Z " fill="#121523" transform="translate(0,0)"/>
<path d="M0 0 C23.34701207 13.34808382 41.6576527 33.75769624 51 59 C51.3403125 59.91136719 51.680625 60.82273438 52.03125 61.76171875 C54.60981952 69.74812156 54.28083641 77.71012534 54 86 C57.69006918 83.32979918 59.78884817 81.13792558 61.6875 77 C62.08324219 76.154375 62.47898437 75.30875 62.88671875 74.4375 C63.43779297 73.2309375 63.43779297 73.2309375 64 72 C64.66339388 70.66503529 65.32953598 69.33142789 66 68 C79.03022776 90.24924265 89.47145185 113.94910616 83.75390625 140.2578125 C78.64571493 158.8378659 69.38561978 174.24693702 53 185 C36.16675474 194.37389784 17.05525775 197.40081782 -1.8125 192.375 C-20.80172313 185.77704959 -34.63385813 172.96460588 -43.3347168 155.01635742 C-49.99493154 140.63049556 -51.77812171 123.20391697 -47.0859375 107.8359375 C-40.99533796 91.93027108 -31.09070209 79.12761831 -19.44628906 66.86743164 C-6.96482884 53.57151716 3.43286502 38.53402918 3.3125 19.6875 C3.31056641 18.4348938 3.31056641 18.4348938 3.30859375 17.15698242 C3.21382564 11.07109287 2.43391307 5.63566776 0 0 Z " fill="#F65E4F" transform="translate(237,133)"/>
<path d="M0 0 C2.72163353 2.72163353 3.23072931 5.83164409 4.25 9.4375 C8.63265296 24.02952023 16.45003213 35.56431984 28.1484375 45.3984375 C34.85066863 51.19572603 38.23602744 56.94763964 39.3515625 65.78515625 C39.87920573 76.32413557 36.60226265 85.43319319 29.75 93.4375 C19.49999862 103.85636467 8.44035766 108.35257735 -6.125 108.5 C-13.43208092 108.41246586 -19.66276157 107.94267558 -26 104 C-26.90878906 103.44054687 -27.81757813 102.88109375 -28.75390625 102.3046875 C-38.75311335 95.58413198 -45.27050324 87.99495219 -48.37890625 76.23828125 C-50.08077151 67.36503407 -49.76359753 58.74146409 -44.69921875 51.015625 C-40.78215363 46.15574272 -35.94416044 42.50464566 -30.98217773 38.78369141 C-25.69852467 34.82038282 -20.75431435 30.59093585 -16 26 C-15.29101562 25.31679687 -14.58203125 24.63359375 -13.8515625 23.9296875 C-7.3563534 17.18561981 -2.95704797 8.87114392 0 0 Z " fill="#111624" transform="translate(260,201)"/>
<path d="M0 0 C1.81618856 1.11903546 3.62785526 2.24541284 5.4375 3.375 C6.44683594 4.00148437 7.45617187 4.62796875 8.49609375 5.2734375 C11 7 11 7 12 9 C10.35 9 8.7 9 7 9 C7.20625 10.155 7.4125 11.31 7.625 12.5 C9.53158247 30.93029723 2.26086987 45.85894611 -9 60 C-9.6496875 60.85207031 -10.299375 61.70414063 -10.96875 62.58203125 C-14.22809107 66.79201347 -17.58272807 70.63842051 -21.4375 74.3125 C-35.57061026 88.15370436 -45.73875294 107.20684278 -46.23828125 127.1328125 C-46.28693588 132.75866571 -46.19214783 138.377459 -46 144 C-51.43711893 135.8443216 -49.71414099 122.85726647 -48.57421875 113.5078125 C-44.51956799 95.14994585 -32.07887103 80.16804307 -19.44628906 66.86743164 C-6.96482884 53.57151716 3.43286502 38.53402918 3.3125 19.6875 C3.31056641 18.4348938 3.31056641 18.4348938 3.30859375 17.15698242 C3.21382564 11.07109287 2.43391307 5.63566776 0 0 Z " fill="#EEB438" transform="translate(237,133)"/>
<path d="M0 0 C1.98 0 3.96 0 6 0 C7.54283346 3.08566691 6.07531413 5.68908339 5.0859375 8.81640625 C4.77090523 9.84277443 4.77090523 9.84277443 4.44950867 10.88987732 C3.76467478 13.11620505 3.06985952 15.33928324 2.375 17.5625 C1.90602966 19.08113647 1.43784878 20.60001696 0.97045898 22.11914062 C0.27866024 24.36715713 -0.41366467 26.61499444 -1.10884094 28.86196899 C-2.76843978 34.22709933 -4.37682685 39.60520698 -5.9375 45 C-7.5063388 50.37967065 -9.17028154 55.70344657 -11 61 C-13.31 61 -15.62 61 -18 61 C-17.44383026 54.25445554 -15.62065141 48.42570246 -13.375 42.0625 C-9.95776486 32.14149475 -6.97850499 22.15752071 -4.25927734 12.02368164 C-3.99066895 11.03102295 -3.72206055 10.03836426 -3.4453125 9.015625 C-3.21344238 8.14196289 -2.98157227 7.26830078 -2.74267578 6.36816406 C-2.02825953 4.09011092 -1.1314563 2.09771876 0 0 Z " fill="#E3E4E4" transform="translate(260,238)"/>
<path d="M0 0 C3.72406906 0.47013356 6.55711726 1.63480128 9.828125 3.43359375 C10.70984375 3.91763672 11.5915625 4.40167969 12.5 4.90039062 C13.4075 5.40763672 14.315 5.91488281 15.25 6.4375 C16.17296875 6.94087891 17.0959375 7.44425781 18.046875 7.96289062 C24.87048011 11.74096022 24.87048011 11.74096022 26 14 C26.5625 17.30078125 26.5625 17.30078125 26 21 C23.65568279 23.30301109 20.90326864 24.68755838 18 26.1875 C17.25621094 26.59935547 16.51242187 27.01121094 15.74609375 27.43554688 C10.90113111 30.09395681 5.95347808 32.55140572 1 35 C-0.5625 32.6875 -0.5625 32.6875 -2 30 C-0.86351798 26.59055395 -0.46011714 26.39306229 2.52734375 24.73828125 C3.23697266 24.34189453 3.94660156 23.94550781 4.67773438 23.53710938 C5.42345703 23.13298828 6.16917969 22.72886719 6.9375 22.3125 C7.67935547 21.89677734 8.42121094 21.48105469 9.18554688 21.05273438 C14.71455511 18 14.71455511 18 17 18 C17 17.34 17 16.68 17 16 C15.72769531 15.61714844 15.72769531 15.61714844 14.4296875 15.2265625 C10.76247907 13.91505516 7.53425443 12.25356877 4.125 10.375 C2.97257812 9.74335938 1.82015625 9.11171875 0.6328125 8.4609375 C-0.23601562 7.97882813 -1.10484375 7.49671875 -2 7 C-1.125 1.125 -1.125 1.125 0 0 Z " fill="#E2E5E5" transform="translate(270,254)"/>
<path d="M0 0 C12.64705882 0 12.64705882 0 18.375 5.125 C20.6394231 9.13128703 20.80893543 12.49774323 20 17 C17.42668858 21.47946802 15.98667534 22.00532986 11 24 C7.37 24 3.74 24 0 24 C0 16.08 0 8.16 0 0 Z " fill="#D3D7D7" transform="translate(167,351)"/>
<path d="M0 0 C0.66 2.31 1.32 4.62 2 7 C-0.62214328 8.50519387 -3.24744208 10.00431319 -5.875 11.5 C-6.62136719 11.92925781 -7.36773437 12.35851562 -8.13671875 12.80078125 C-8.85214844 13.20683594 -9.56757813 13.61289062 -10.3046875 14.03125 C-10.96452637 14.40830078 -11.62436523 14.78535156 -12.30419922 15.17382812 C-14 16 -14 16 -16 16 C-13.96718622 18.18520678 -12.06854982 19.66511505 -9.42578125 21.04296875 C-8.75869141 21.39423828 -8.09160156 21.74550781 -7.40429688 22.10742188 C-6.71400391 22.46384766 -6.02371094 22.82027344 -5.3125 23.1875 C-4.61060547 23.55552734 -3.90871094 23.92355469 -3.18554688 24.30273438 C-1.45962365 25.2067894 0.26984719 26.10406601 2 27 C1.47731534 29.76276177 0.89130413 32.3260876 0 35 C-5.01832715 33.20846739 -9.55075652 30.59035949 -14.1875 28 C-15.00669922 27.54882812 -15.82589844 27.09765625 -16.66992188 26.6328125 C-17.45302734 26.19710938 -18.23613281 25.76140625 -19.04296875 25.3125 C-19.75477295 24.91675781 -20.46657715 24.52101563 -21.19995117 24.11328125 C-23 23 -23 23 -25 21 C-25.90839447 16.04512108 -25.90839447 16.04512108 -25 13 C-22.38857855 10.35008093 -19.24655151 8.77126022 -16 7 C-14.96746094 6.36449219 -13.93492187 5.72898437 -12.87109375 5.07421875 C-4.58354208 0 -4.58354208 0 0 0 Z " fill="#E6E8E8" transform="translate(239,254)"/>
<path d="M0 0 C0.66 0 1.32 0 2 0 C-0.18761611 18.51240731 -9.72529965 33.20420352 -23.625 45.1875 C-39.33562758 57.28959281 -56.72594473 59.32490498 -76 58 C-88.23343876 56.37823119 -99.08365667 50.32192045 -108 42 C-106.515 41.505 -106.515 41.505 -105 41 C-105 41.66 -105 42.32 -105 43 C-104.443125 43.103125 -103.88625 43.20625 -103.3125 43.3125 C-100.54552494 44.13511421 -98.47076949 45.50814649 -96 47 C-88.56714241 50.85146491 -81.18122806 53.28819903 -73 55 C-71.824375 55.268125 -70.64875 55.53625 -69.4375 55.8125 C-65.29834052 56.03827234 -61.67913878 55.36757487 -57.6328125 54.53515625 C-55 54 -55 54 -51.375 53.5625 C-45.38565554 52.56427592 -39.96087239 50.57036416 -34.5625 47.8125 C-31 46 -31 46 -29 46 C-29 45.34 -29 44.68 -29 44 C-27.59109095 43.02718185 -26.17634198 42.06151024 -24.73046875 41.14453125 C-19.61055582 37.770127 -19.61055582 37.770127 -16 33 C-15.34 33 -14.68 33 -14 33 C-13.62875 31.95972656 -13.62875 31.95972656 -13.25 30.8984375 C-11.30950467 26.39891395 -8.5375768 22.45310544 -5.875 18.3515625 C-3.9573002 14.9236741 -2.92677092 11.80391048 -2 8 C-1.7215625 6.9171875 -1.7215625 6.9171875 -1.4375 5.8125 C-1.293125 5.214375 -1.14875 4.61625 -1 4 C-0.66666667 2.66666667 -0.33333333 1.33333333 0 0 Z " fill="#EE439E" transform="translate(319,269)"/>
<path d="M0 0 C0.99 0 1.98 0 3 0 C3 8.25 3 16.5 3 25 C2.34 25 1.68 25 1 25 C1 24.34 1 23.68 1 23 C0.01 23.66 -0.98 24.32 -2 25 C-6.32351988 25.56045628 -8.29704773 25.4786058 -11.9375 23 C-14.23136937 19.66346274 -14.7545711 17.90037614 -14.484375 13.9375 C-13.61901083 10.47604331 -11.85801731 8.98818595 -9 7 C-5.79647701 6.62311494 -3.88861709 6.55569145 -1 8 C-0.67 5.36 -0.34 2.72 0 0 Z " fill="#E4E9E8" transform="translate(302,350)"/>
<path d="M0 0 C0 3 0 3 -2.08984375 5.2421875 C-3.02957031 6.11101562 -3.96929687 6.97984375 -4.9375 7.875 C-10.97242001 13.67390665 -15.55341489 19.88042043 -20 27 C-20.65097656 28.04027344 -21.30195313 29.08054688 -21.97265625 30.15234375 C-31.20161486 46.00420683 -31.61029836 61.14173112 -31 79 C-36.43711893 70.8443216 -34.71414099 57.85726647 -33.57421875 48.5078125 C-29.96743116 32.17769446 -19.16297233 16.31631382 -7 5 C-5.35394174 3.96642853 -3.69036558 2.95939668 -2 2 C-1.34 1.34 -0.68 0.68 0 0 Z " fill="#ED9C36" transform="translate(222,198)"/>
<path d="M0 0 C2.375 1.625 2.375 1.625 4 4 C4.33 5.98 4.66 7.96 5 10 C0.38 10 -4.24 10 -9 10 C-6.59165543 14.16420059 -6.59165543 14.16420059 -3.73828125 14.390625 C-2.53751953 14.32101562 -2.53751953 14.32101562 -1.3125 14.25 C-0.50425781 14.21390625 0.30398437 14.1778125 1.13671875 14.140625 C1.75160156 14.09421875 2.36648437 14.0478125 3 14 C2 17 2 17 0 18 C-6.26519337 18.5801105 -6.26519337 18.5801105 -9.375 16.125 C-12.27394168 12.33407627 -12.48603989 9.77939224 -12 5 C-8.59008657 0.14345663 -5.84624621 -0.95665847 0 0 Z " fill="#D9DEDE" transform="translate(202,357)"/>
<path d="M0 0 C8 0 8 0 11 2.125 C13.34662495 5.49827337 13.59909679 6.97749297 13 11 C12.14986429 13.55040714 11.46852322 14.65294576 9.3125 16.25 C7 17 7 17 0 17 C0 11.39 0 5.78 0 0 Z " fill="#141823" transform="translate(171,355)"/>
<path d="M0 0 C2.5 1.625 2.5 1.625 4 4 C4 5.98 4 7.96 4 10 C-0.29 10 -4.58 10 -9 10 C-8.34 11.32 -7.68 12.64 -7 14 C-4.03 14 -1.06 14 2 14 C1 17 1 17 -1 18 C-4.93429172 18.52457223 -6.54458957 18.30690703 -9.875 16.0625 C-12.37728329 12.4562682 -12.68948261 10.39107866 -12.41015625 6.09375 C-12 4 -12 4 -10.5 1.4375 C-6.96238839 -0.59662668 -3.98460801 -0.80018767 0 0 Z " fill="#DADEDE" transform="translate(322,357)"/>
<path d="M0 0 C1.32 0.33 2.64 0.66 4 1 C4.66 0.67 5.32 0.34 6 0 C9.4709951 -0.37728208 11.30016217 -0.50293006 14.1796875 1.56640625 C16.67335555 4.90021568 16.40231039 7.13761941 16.25 11.25 C16.21390625 12.51328125 16.1778125 13.7765625 16.140625 15.078125 C16.07101562 16.52445312 16.07101562 16.52445312 16 18 C15.01 18 14.02 18 13 18 C12.93941406 17.07316406 12.87882812 16.14632813 12.81640625 15.19140625 C12.73261719 13.99386719 12.64882813 12.79632813 12.5625 11.5625 C12.48128906 10.36753906 12.40007812 9.17257812 12.31640625 7.94140625 C12.32343886 5.11429756 12.32343886 5.11429756 11 4 C8.5 3.83333333 8.5 3.83333333 6 4 C4.12175109 5.87824891 4.60897603 9.03935276 4.4375 11.5625 C4.31181641 13.35880859 4.31181641 13.35880859 4.18359375 15.19140625 C4.12300781 16.11824219 4.06242187 17.04507812 4 18 C2.68 18 1.36 18 0 18 C0 12.06 0 6.12 0 0 Z " fill="#D3D6D5" transform="translate(268,357)"/>
<path d="M0 0 C5.94 0 11.88 0 18 0 C18 0.99 18 1.98 18 3 C15.69 3 13.38 3 11 3 C11 9.6 11 16.2 11 23 C9.68 23 8.36 23 7 23 C7 16.4 7 9.8 7 3 C5.02 3 3.04 3 1 3 C0.67 2.01 0.34 1.02 0 0 Z " fill="#CDD0CF" transform="translate(238,352)"/>
<path d="M0 0 C2.77393516 4.16090274 2.94451427 8.06177032 3 13 C2.1875 15.8125 2.1875 15.8125 1 18 C0.690625 18.78375 0.38125 19.5675 0.0625 20.375 C-0.288125 21.24125 -0.63875 22.1075 -1 23 C-1.474375 24.216875 -1.94875 25.43375 -2.4375 26.6875 C-4 30 -4 30 -7 32 C-7 30.68 -7 29.36 -7 28 C-7.763125 28.495 -8.52625 28.99 -9.3125 29.5 C-12 31 -12 31 -15 31 C-14.56429688 30.63390625 -14.12859375 30.2678125 -13.6796875 29.890625 C-4.76881391 21.78983083 -1.2108813 11.77477675 0 0 Z " fill="#B91F82" transform="translate(299,268)"/>
<path d="M0 0 C0.99 0 1.98 0 3 0 C2.36201452 4.17839415 1.48129698 8.19596382 0.37109375 12.2734375 C-0.09780273 14.00400391 -0.09780273 14.00400391 -0.57617188 15.76953125 C-0.90166016 16.95933594 -1.22714844 18.14914062 -1.5625 19.375 C-1.89185547 20.58800781 -2.22121094 21.80101562 -2.56054688 23.05078125 C-3.3711038 26.03457052 -4.18433705 29.01760327 -5 32 C-7.475 32.495 -7.475 32.495 -10 33 C-9.81969238 32.41226807 -9.63938477 31.82453613 -9.45361328 31.21899414 C-7.15831818 23.66284719 -5.09959983 16.05215058 -3.07421875 8.41992188 C-2.82027344 7.47568359 -2.56632813 6.53144531 -2.3046875 5.55859375 C-2.07765137 4.70579834 -1.85061523 3.85300293 -1.61669922 2.97436523 C-1 1 -1 1 0 0 Z " fill="#DEDFDF" transform="translate(235,347)"/>
<path d="M0 0 C1.86328125 0.1875 1.86328125 0.1875 4 1 C5.23046875 3.25 5.23046875 3.25 6.1875 6 C7.1604517 9.2610197 7.1604517 9.2610197 9 12 C10.65 8.04 12.3 4.08 14 0 C14.99 0 15.98 0 17 0 C16.44380331 4.6889493 15.11817327 8.19924267 12.9375 12.375 C12.38964844 13.43460937 11.84179688 14.49421875 11.27734375 15.5859375 C10.85582031 16.38257813 10.43429688 17.17921875 10 18 C8.203125 17.96484375 8.203125 17.96484375 6 17 C4.70970899 14.49340256 3.70180343 12.19209979 2.75 9.5625 C2.481875 8.86833984 2.21375 8.17417969 1.9375 7.45898438 C0 2.35327647 0 2.35327647 0 0 Z " fill="#E5E7E5" transform="translate(209,357)"/>
<path d="M0 0 C1.89128342 1.89128342 1.2366852 4.57067726 1.328125 7.08984375 C1.21984375 7.72019531 1.1115625 8.35054688 1 9 C-2.23253796 11.15502531 -3.25150923 11.46856135 -7 11 C-8.8125 9.875 -8.8125 9.875 -10 8 C-10.39310741 4.85514075 -10.47555213 2.86718329 -8.9375 0.0625 C-5.84787273 -1.63181173 -3.32782582 -0.73951685 0 0 Z " fill="#161C27" transform="translate(301,361)"/>
<path d="M0 0 C0.99 0 1.98 0 3 0 C3 0.66 3 1.32 3 2 C3.556875 2.103125 4.11375 2.20625 4.6875 2.3125 C7.45447506 3.13511421 9.52923051 4.50814649 12 6 C20.99746647 10.66219431 30.10813988 13.05759838 40 15 C35.55365669 17.54501165 31.87060343 17.08471954 27 16 C17.27019014 13.03554466 5.87039955 8.7672307 0 0 Z " fill="#EB4A78" transform="translate(211,310)"/>
<path d="M0 0 C0.99 0 1.98 0 3 0 C3 0.66 3 1.32 3 2 C3.99 1.34 4.98 0.68 6 0 C7.32 0 8.64 0 10 0 C10 0.99 10 1.98 10 3 C8.02 3.33 6.04 3.66 4 4 C3.67 8.62 3.34 13.24 3 18 C2.01 18 1.02 18 0 18 C0 12.06 0 6.12 0 0 Z " fill="#E4E5E6" transform="translate(331,357)"/>
<path d="M0 0 C3.02245069 0.08792584 4.0062956 0.29784214 6.625 2 C8.125 4.375 8.125 4.375 8.125 10.375 C4.165 10.375 0.205 10.375 -3.875 10.375 C-3.875 10.045 -3.875 9.715 -3.875 9.375 C-0.575 9.375 2.725 9.375 6.125 9.375 C5.0604148 6.76556942 5.0604148 6.76556942 3.125 4.375 C-0.96100528 3.77912423 -2.40148925 4.05932616 -5.875 6.375 C-5.875 0.99085974 -5.32627059 0.51544554 0 0 Z " fill="#E8E9E9" transform="translate(317.875,356.625)"/>
<path d="M0 0 C0.73476562 0.32484375 0.73476562 0.32484375 1.484375 0.65625 C13.25709336 5.0405727 28.01253852 4.19665639 40 1 C39 3 39 3 36.6875 4 C28.75756342 6.15049128 21.11225665 7.81090303 13 6 C11.97003906 5.78988281 10.94007813 5.57976562 9.87890625 5.36328125 C3.5477125 3.95386356 3.5477125 3.95386356 1 3 C0.67 2.01 0.34 1.02 0 0 Z " fill="#CA2C7C" transform="translate(234,305)"/>
<path d="M0 0 C2.875 0.3125 2.875 0.3125 6 1 C8.49118953 4.7367843 8.2065226 6.74451819 8.125 11.1875 C8.10695313 12.45980469 8.08890625 13.73210937 8.0703125 15.04296875 C8.03550781 16.50669922 8.03550781 16.50669922 8 18 C7.01 18 6.02 18 5 18 C4.97421875 17.09636719 4.9484375 16.19273437 4.921875 15.26171875 C4.86515625 14.08222656 4.8084375 12.90273438 4.75 11.6875 C4.70359375 10.51574219 4.6571875 9.34398437 4.609375 8.13671875 C4.31411442 4.90571512 4.31411442 4.90571512 1.953125 3.20703125 C1.30859375 2.80871094 0.6640625 2.41039062 0 2 C0 1.34 0 0.68 0 0 Z " fill="#E5E9E9" transform="translate(276,357)"/>
<path d="M0 0 C1.828125 0.0703125 1.828125 0.0703125 4 1 C5.13607609 3.33792501 5.97160504 5.42232156 6.75 7.875 C6.97042969 8.51308594 7.19085938 9.15117187 7.41796875 9.80859375 C8.37610794 12.65920663 9 14.9743871 9 18 C8.01 17.67 7.02 17.34 6 17 C4.79572627 14.51819988 3.77459087 12.13520225 2.8125 9.5625 C2.53986328 8.86833984 2.26722656 8.17417969 1.98632812 7.45898438 C0 2.31643562 0 2.31643562 0 0 Z " fill="#E5E7E7" transform="translate(209,357)"/>
<path d="M0 0 C0.99 0 1.98 0 3 0 C3 5.94 3 11.88 3 18 C2.01 18 1.02 18 0 18 C0 12.06 0 6.12 0 0 Z " fill="#E1E4E4" transform="translate(260,357)"/>
<path d="M0 0 C0.66 0 1.32 0 2 0 C1.42045569 5.07264064 0.3111945 9.48153686 -1.4375 14.3125 C-1.86933594 15.52550781 -2.30117188 16.73851562 -2.74609375 17.98828125 C-4 21 -4 21 -6 23 C-6.66 23 -7.32 23 -8 23 C-6.87548273 20.0280615 -5.77706209 17.66559313 -4 15 C-2.87561809 11.36229381 -1.89324326 7.70057923 -1 4 C-0.66666667 2.66666667 -0.33333333 1.33333333 0 0 Z " fill="#E93488" transform="translate(319,269)"/>
<path d="M0 0 C0.33 0 0.66 0 1 0 C1.84843174 6.56699525 2.12561146 12.94550593 2.0625 19.5625 C2.05798828 20.47580078 2.05347656 21.38910156 2.04882812 22.33007812 C2.0371874 24.55345738 2.02083851 26.77669121 2 29 C-0.66789574 24.99815639 -1.12615532 22.05125874 -1.1328125 17.3046875 C-1.13410156 16.42425781 -1.13539063 15.54382813 -1.13671875 14.63671875 C-1.13285156 13.72535156 -1.12898437 12.81398438 -1.125 11.875 C-1.12886719 10.95589844 -1.13273438 10.03679687 -1.13671875 9.08984375 C-1.13542969 8.21199219 -1.13414062 7.33414063 -1.1328125 6.4296875 C-1.13168457 5.62772949 -1.13055664 4.82577148 -1.12939453 3.99951172 C-1 2 -1 2 0 0 Z " fill="#EDA443" transform="translate(189,248)"/>
<path d="M0 0 C1.55078125 1.671875 1.55078125 1.671875 3 4 C2.85546875 6.578125 2.85546875 6.578125 2.1875 9.25 C1.97480469 10.14203125 1.76210937 11.0340625 1.54296875 11.953125 C1.36378906 12.62859375 1.18460938 13.3040625 1 14 C-0.65 14.33 -2.3 14.66 -4 15 C-3.69255859 14.00419922 -3.69255859 14.00419922 -3.37890625 12.98828125 C-3.10949219 12.10527344 -2.84007812 11.22226562 -2.5625 10.3125 C-2.29566406 9.44238281 -2.02882812 8.57226562 -1.75390625 7.67578125 C-1.03655471 5.12974079 -0.482459 2.5996577 0 0 Z " fill="#D9DCDC" transform="translate(229,365)"/>
<path d="M0 0 C3.0625 0.1875 3.0625 0.1875 5.0625 2.1875 C5.0625 3.1775 5.0625 4.1675 5.0625 5.1875 C1.7625 5.1875 -1.5375 5.1875 -4.9375 5.1875 C-3.69966216 0.23614865 -3.69966216 0.23614865 0 0 Z " fill="#1E222D" transform="translate(317.9375,359.8125)"/>
<path d="M0 0 C1.4540625 0.0309375 1.4540625 0.0309375 2.9375 0.0625 C3.5975 1.7125 4.2575 3.3625 4.9375 5.0625 C1.6375 5.0625 -1.6625 5.0625 -5.0625 5.0625 C-3.81634615 0.07788462 -3.81634615 0.07788462 0 0 Z " fill="#1E232A" transform="translate(199.0625,359.9375)"/>
<path d="M0 0 C1.74627478 2.61941217 2.38722388 4.03824877 3 7 C1.68 6.67 0.36 6.34 -1 6 C-1 6.99 -1 7.98 -1 9 C-5.95 9.33 -10.9 9.66 -16 10 C-16 9.34 -16 8.68 -16 8 C-11.38 8 -6.76 8 -2 8 C-2.33 6.02 -2.66 4.04 -3 2 C-2.01 1.34 -1.02 0.68 0 0 Z " fill="#353943" transform="translate(209,359)"/>
<path d="M0 0 C4.29 0 8.58 0 13 0 C11.02 0.99 11.02 0.99 9 2 C9.66 2.66 10.32 3.32 11 4 C9.54364629 4.22174933 8.08477044 4.42698698 6.625 4.625 C5.81289063 4.74101562 5.00078125 4.85703125 4.1640625 4.9765625 C3.44992187 4.98429687 2.73578125 4.99203125 2 5 C1.34 4.34 0.68 3.68 0 3 C0 2.01 0 1.02 0 0 Z " fill="#2A313A" transform="translate(313,367)"/>
<path d="M0 0 C0 3 0 3 -2.40625 5.69921875 C-3.4299968 6.70302243 -4.4616054 7.69885649 -5.5 8.6875 C-6.02464844 9.19861328 -6.54929688 9.70972656 -7.08984375 10.23632812 C-8.38660904 11.49772708 -9.69246117 12.74977212 -11 14 C-11.6328125 12.16015625 -11.6328125 12.16015625 -12 10 C-9.08090109 6.47991014 -5.94646647 4.23988638 -2 2 C-1.34 1.34 -0.68 0.68 0 0 Z " fill="#F79C34" transform="translate(222,198)"/>
<path d="M0 0 C1.5 1.25 1.5 1.25 3 3 C3 4.32 3 5.64 3 7 C-1.29 7 -5.58 7 -10 7 C-9.67 6.34 -9.34 5.68 -9 5 C-6.03 5 -3.06 5 0 5 C-0.33 3.68 -0.66 2.36 -1 1 C-0.67 0.67 -0.34 0.34 0 0 Z " fill="#F1F3F3" transform="translate(204,360)"/>
<path d="M0 0 C0.66 1.32 1.32 2.64 2 4 C-2.455 7.96 -2.455 7.96 -7 12 C-7.99 11.67 -8.98 11.34 -10 11 C-9.52949219 10.54109375 -9.05898437 10.0821875 -8.57421875 9.609375 C-3.96631602 5.08450705 -3.96631602 5.08450705 0 0 Z " fill="#EBA532" transform="translate(225,191)"/>
<path d="M0 0 C-5.012018 2.78445444 -9.64000656 3.12483509 -15.3125 3.0625 C-16.38113281 3.05347656 -17.44976562 3.04445313 -18.55078125 3.03515625 C-19.35902344 3.02355469 -20.16726562 3.01195312 -21 3 C-21 2.67 -21 2.34 -21 2 C-20.22914063 1.86722656 -19.45828125 1.73445313 -18.6640625 1.59765625 C-17.66117187 1.42105469 -16.65828125 1.24445313 -15.625 1.0625 C-14.62726563 0.88847656 -13.62953125 0.71445312 -12.6015625 0.53515625 C-7.56742706 -0.50039413 -5.33427432 -0.77433014 0 0 Z " fill="#E93194" transform="translate(274,323)"/>
<path d="M0 0 C0.99 0.495 0.99 0.495 2 1 C2.99 0.7215625 2.99 0.7215625 4 0.4375 C4.66 0.293125 5.32 0.14875 6 0 C6.66 0.66 7.32 1.32 8 2 C6.78763672 2.53560547 6.78763672 2.53560547 5.55078125 3.08203125 C2.68863053 4.80318285 2.68863053 4.80318285 2.29296875 8.13671875 C2.25816406 9.30847656 2.22335937 10.48023438 2.1875 11.6875 C2.13980469 12.86699219 2.09210938 14.04648437 2.04296875 15.26171875 C2.02878906 16.16535156 2.01460938 17.06898438 2 18 C1.67 18 1.34 18 1 18 C0.67 12.06 0.34 6.12 0 0 Z " fill="#C8CCCD" transform="translate(270,357)"/>
<path d="M0 0 C0.66 0 1.32 0 2 0 C2 3.96 2 7.92 2 12 C1.01 12 0.02 12 -1 12 C-1.02698189 10.37509046 -1.04638757 8.75005367 -1.0625 7.125 C-1.07410156 6.22007812 -1.08570313 5.31515625 -1.09765625 4.3828125 C-1 2 -1 2 0 0 Z " fill="#1B1129" transform="translate(297,264)"/>
<path d="M0 0 C3.465 1.98 3.465 1.98 7 4 C4 5 4 5 2 5 C2.33 7.97 2.66 10.94 3 14 C2.01 14.495 2.01 14.495 1 15 C-0.03590199 9.94997778 -0.10251672 5.12583611 0 0 Z " fill="#F8A82A" transform="translate(242,137)"/>
<path d="M0 0 C0.99 0.33 1.98 0.66 3 1 C3.152 10.12 3.152 10.12 2 13 C-0.70879335 14.35439668 -3.00933268 14.06501451 -6 14 C-4.03617993 12.49440461 -2.21736634 11.10868317 0 10 C0 6.7 0 3.4 0 0 Z " fill="#E2E6E6" transform="translate(301,360)"/>
<path d="M0 0 C0.33 0 0.66 0 1 0 C1 3.3 1 6.6 1 10 C-3.27809081 11.0695227 -4.24224818 10.92965634 -8 9 C-8.33 8.34 -8.66 7.68 -9 7 C-3.25 6.875 -3.25 6.875 -1 8 C-0.67 5.36 -0.34 2.72 0 0 Z " fill="#C9D0D1" transform="translate(302,350)"/>
<path d="M0 0 C-1 3 -1 3 -3 4 C-5.3329866 4.04022391 -7.66706666 4.04320247 -10 4 C-10 3.01 -10 2.02 -10 1 C-3.375 0 -3.375 0 0 0 Z " fill="#E3E6E7" transform="translate(205,371)"/>
<path d="M0 0 C0.99 0.33 1.98 0.66 3 1 C2.319375 1.804375 2.319375 1.804375 1.625 2.625 C-0.21688312 5.31698302 -1.07971933 7.88520388 -2 11 C-2.33 11 -2.66 11 -3 11 C-3.08096803 9.54257537 -3.13917774 8.08387193 -3.1875 6.625 C-3.22230469 5.81289063 -3.25710938 5.00078125 -3.29296875 4.1640625 C-3.19628906 3.44992187 -3.09960938 2.73578125 -3 2 C-2.01 1.34 -1.02 0.68 0 0 Z " fill="#E9EEED" transform="translate(292,358)"/>
<path d="M0 0 C-0.28241641 1.46015291 -0.57626614 2.91809793 -0.875 4.375 C-1.03742188 5.18710937 -1.19984375 5.99921875 -1.3671875 6.8359375 C-2 9 -2 9 -4 11 C-5.34516765 4.64102564 -5.34516765 4.64102564 -3.6875 1.5625 C-2 0 -2 0 0 0 Z " fill="#EDEEED" transform="translate(235,358)"/>
<path d="M0 0 C2.04355211 3.06532816 2.38658825 4.38354689 2.75 7.9375 C2.84796875 8.79214844 2.9459375 9.64679688 3.046875 10.52734375 C2.99549449 13.23766556 2.38633814 14.70187794 1 17 C0.67 17 0.34 17 0 17 C0 11.39 0 5.78 0 0 Z " fill="#E62B7E" transform="translate(299,268)"/>
<path d="M0 0 C9.41002278 -0.18451025 9.41002278 -0.18451025 14 1 C10.8758675 2.8587516 8.90682466 3.20151847 5.3125 2.75 C4.52488281 2.66234375 3.73726562 2.5746875 2.92578125 2.484375 C2.29027344 2.32453125 1.65476563 2.1646875 1 2 C0.67 1.34 0.34 0.68 0 0 Z " fill="#E64689" transform="translate(237,324)"/>
<path d="M0 0 C0.66 0.33 1.32 0.66 2 1 C-0.22222392 5.08889201 -1.29408826 6.7411657 -5.75 8.375 C-6.8225 8.58125 -7.895 8.7875 -9 9 C-9 8.34 -9 7.68 -9 7 C-7.02053408 5.63636792 -5.0180755 4.30581356 -3 3 C-1.20605554 1.37648891 -1.20605554 1.37648891 0 0 Z " fill="#E8319C" transform="translate(299,306)"/>
<path d="M0 0 C2.60018816 3.90028225 2.15085514 7.47434569 2 12 C1.01 12 0.02 12 -1 12 C-1.02687279 10.18757948 -1.04633715 8.37504767 -1.0625 6.5625 C-1.07410156 5.55316406 -1.08570313 4.54382813 -1.09765625 3.50390625 C-1 1 -1 1 0 0 Z " fill="#22242E" transform="translate(212,262)"/>
<path d="M0 0 C0.33 0.66 0.66 1.32 1 2 C1.66 2.33 2.32 2.66 3 3 C1.35 4.65 -0.3 6.3 -2 8 C-2.99 7.01 -3.98 6.02 -5 5 C-3.68 4.67 -2.36 4.34 -1 4 C-0.67 2.68 -0.34 1.36 0 0 Z " fill="#DADEDD" transform="translate(183,366)"/>
<path d="M0 0 C3.3 0 6.6 0 10 0 C9 3 9 3 7 4 C5.00039988 4.039992 2.99952758 4.04346799 1 4 C0.67 2.68 0.34 1.36 0 0 Z " fill="#D0D3D3" transform="translate(314,371)"/>
<path d="M0 0 C-0.59687434 3.34249629 -1.73603877 5.46436342 -4 8 C-4.66 8 -5.32 8 -6 8 C-5.62403791 5.21788056 -5.32681541 3.4120716 -3.5625 1.1875 C-2 0 -2 0 0 0 Z " fill="#F5B739" transform="translate(232,185)"/>
<path d="M0 0 C0.33 0.66 0.66 1.32 1 2 C1.66 2 2.32 2 3 2 C2.39816251 4.02045442 1.72693904 6.02111039 1 8 C0.01 8.495 0.01 8.495 -1 9 C-1.80967438 6.08517222 -2.21845993 4.53886783 -1.0625 1.6875 C-0.711875 1.130625 -0.36125 0.57375 0 0 Z " fill="#CFD3D3" transform="translate(219,366)"/>
<path d="M0 0 C0.66 0 1.32 0 2 0 C2 0.66 2 1.32 2 2 C3.32 2.33 4.64 2.66 6 3 C6 3.66 6 4.32 6 5 C6.66 5 7.32 5 8 5 C7.67 5.99 7.34 6.98 7 8 C1.125 3.375 1.125 3.375 0 0 Z " fill="#E3565C" transform="translate(204,303)"/>
<path d="M0 0 C0.33 1.32 0.66 2.64 1 4 C1.66 4 2.32 4 3 4 C3.66 6.64 4.32 9.28 5 12 C4.01 12.495 4.01 12.495 3 13 C2.30329584 11.21189234 1.61788811 9.41937948 0.9375 7.625 C0.55464844 6.62726563 0.17179688 5.62953125 -0.22265625 4.6015625 C-1 2 -1 2 0 0 Z " fill="#EA7A49" transform="translate(191,276)"/>
<path d="M0 0 C3.96 0 7.92 0 12 0 C11.67 0.66 11.34 1.32 11 2 C7.33333333 2 3.66666667 2 0 2 C0 1.34 0 0.68 0 0 Z " fill="#0A0F18" transform="translate(194,368)"/>
<path d="M0 0 C2.31 0.33 4.62 0.66 7 1 C7 1.99 7 2.98 7 4 C6.01 4.495 6.01 4.495 5 5 C5 4.34 5 3.68 5 3 C2.03 2.505 2.03 2.505 -1 2 C-0.67 1.34 -0.34 0.68 0 0 Z " fill="#E6E8E7" transform="translate(197,357)"/>
<path d="M0 0 C0.99 0 1.98 0 3 0 C3 0.66 3 1.32 3 2 C3.61875 2.12375 4.2375 2.2475 4.875 2.375 C7 3 7 3 9 5 C8.34 5.66 7.68 6.32 7 7 C5.83040013 6.02433888 4.66438823 5.044375 3.5 4.0625 C2.8503125 3.51722656 2.200625 2.97195313 1.53125 2.41015625 C1.0259375 1.94480469 0.520625 1.47945313 0 1 C0 0.67 0 0.34 0 0 Z " fill="#EF4C67" transform="translate(211,310)"/>
<path d="M0 0 C0.66 0.33 1.32 0.66 2 1 C2.40729228 3.32156597 2.74438677 5.6568787 3 8 C2.01 7.67 1.02 7.34 0 7 C-0.38133299 5.0085944 -0.71325582 3.00720923 -1 1 C-0.67 0.67 -0.34 0.34 0 0 Z " fill="#EAEDEE" transform="translate(215,367)"/>
<path d="M0 0 C2.97 0.495 2.97 0.495 6 1 C6 1.99 6 2.98 6 4 C3 4 3 4 0 2 C0 1.34 0 0.68 0 0 Z " fill="#DCDFDE" transform="translate(276,357)"/>
<path d="M0 0 C4.455 0.99 4.455 0.99 9 2 C8.01 2.66 7.02 3.32 6 4 C2.8125 3.125 2.8125 3.125 0 2 C0 1.34 0 0.68 0 0 Z " fill="#EB4181" transform="translate(231,321)"/>
<path d="M0 0 C0.66 0 1.32 0 2 0 C1.25 6.75 1.25 6.75 -1 9 C-2.0326802 6.21176345 -2.04509293 5.1322726 -1.0625 2.25 C-0.711875 1.5075 -0.36125 0.765 0 0 Z " fill="#EB3A7E" transform="translate(319,269)"/>
<path d="M0 0 C0.66 0.33 1.32 0.66 2 1 C0.68 3.64 -0.64 6.28 -2 9 C-3 5 -3 5 -1.5625 2.25 C-1.046875 1.5075 -0.53125 0.765 0 0 Z " fill="#F7A733" transform="translate(202,219)"/>
<path d="M0 0 C2.31 0.33 4.62 0.66 7 1 C3.5647952 3.29013653 2.014669 3.17842973 -2 3 C-1.34 2.01 -0.68 1.02 0 0 Z " fill="#202430" transform="translate(198,369)"/>
<path d="M0 0 C1.65 0 3.3 0 5 0 C5.66 1.32 6.32 2.64 7 4 C5.35 4 3.7 4 2 4 C2 3.34 2 2.68 2 2 C1.34 1.34 0.68 0.68 0 0 Z " fill="#0F151E" transform="translate(316,360)"/>
<path d="M0 0 C0.66 0 1.32 0 2 0 C0.50902342 3.7952131 -1.75700849 5.61042731 -5 8 C-5.33 7.34 -5.66 6.68 -6 6 C-4 4 -2 2 0 0 Z " fill="#D52B8E" transform="translate(287,304)"/>
<path d="M0 0 C0.66 0 1.32 0 2 0 C1.67 1.98 1.34 3.96 1 6 C0.34 6 -0.32 6 -1 6 C-1.33 6.99 -1.66 7.98 -2 9 C-2.33 8.34 -2.66 7.68 -3 7 C-2.06421005 4.64018187 -1.06652192 2.30368736 0 0 Z " fill="#E4AA36" transform="translate(195,229)"/>
<path d="M0 0 C1.125 3.75 1.125 3.75 0 6 C-2.31 6 -4.62 6 -7 6 C-4.38058783 4.25372522 -2.96175123 3.61277612 0 3 C0 2.01 0 1.02 0 0 Z " fill="#B9BCBE" transform="translate(249,293)"/>
</svg>
